<svg width="50" height="50" viewBox="0 0 50 50" fill="none" xmlns="http://www.w3.org/2000/svg">
<path d="M50 25C50 38.8071 38.8071 50 25 50C11.1929 50 -3.45353e-08 38.8071 -3.45353e-08 25C-3.45353e-08 11.1929 11.1929 1.98603e-07 25 1.98603e-07C38.8071 1.98603e-07 50 11.1929 50 25Z" fill="url(#paint0_linear_101_11)"/>
<path d="M12.168 29.024C12.648 26.784 13.096 24.608 13.512 22.496C13.672 21.584 13.84 20.64 14.016 19.664C14.192 18.688 14.352 17.72 14.496 16.76C14.656 15.8 14.792 14.872 14.904 13.976C15.032 13.064 15.128 12.24 15.192 11.504C15.56 11.536 15.976 11.568 16.44 11.6C16.904 11.616 17.336 11.64 17.736 11.672C18.216 11.704 18.696 11.72 19.176 11.72C19.16 11.784 19.136 11.904 19.104 12.08C19.072 12.256 19.032 12.472 18.984 12.728C18.936 12.968 18.88 13.24 18.816 13.544C18.768 13.848 18.712 14.152 18.648 14.456C18.52 15.16 18.376 15.952 18.216 16.832L18.36 16.808C18.52 16.552 18.744 16.2 19.032 15.752C19.336 15.288 19.648 14.8 19.968 14.288C20.288 13.776 20.6 13.288 20.904 12.824C21.208 12.344 21.464 11.936 21.672 11.6C22.472 11.536 23.272 11.464 24.072 11.384C24.872 11.304 25.672 11.2 26.472 11.072C25.72 12.08 24.992 13.072 24.288 14.048C23.984 14.464 23.672 14.896 23.352 15.344C23.048 15.792 22.744 16.232 22.44 16.664C22.136 17.096 21.848 17.512 21.576 17.912C21.32 18.312 21.088 18.68 20.88 19.016C21.232 20.632 21.648 22.192 22.128 23.696C22.608 25.2 23.096 26.736 23.592 28.304C23.224 28.288 22.848 28.28 22.464 28.28C22.08 28.264 21.704 28.256 21.336 28.256C20.872 28.256 20.424 28.264 19.992 28.28C19.56 28.28 19.112 28.288 18.648 28.304C18.504 27.264 18.344 26.176 18.168 25.04C18.008 23.888 17.856 22.792 17.712 21.752L17.28 22.256C17.168 22.736 17.04 23.328 16.896 24.032C16.768 24.736 16.64 25.416 16.512 26.072C16.368 26.84 16.216 27.632 16.056 28.448L12.168 29.024Z" fill="white"/>
<path d="M39.216 29.736C39.216 30.568 39.096 31.456 38.856 32.4C38.616 33.328 38.28 34.256 37.848 35.184C37.416 36.096 36.88 36.976 36.24 37.824C35.616 38.656 34.904 39.392 34.104 40.032C33.304 40.656 32.424 41.16 31.464 41.544C30.52 41.928 29.512 42.12 28.44 42.12C28.216 42.12 27.992 42.104 27.768 42.072C27.544 42.056 27.32 42.032 27.096 42C27.528 39.792 27.952 37.64 28.368 35.544C28.528 34.664 28.696 33.752 28.872 32.808C29.048 31.848 29.216 30.904 29.376 29.976C29.536 29.048 29.688 28.16 29.832 27.312C29.992 26.464 30.12 25.696 30.216 25.008C30.904 24.88 31.6 24.76 32.304 24.648C33.008 24.536 33.728 24.48 34.464 24.48C35.328 24.48 36.056 24.616 36.648 24.888C37.256 25.16 37.744 25.536 38.112 26.016C38.496 26.496 38.776 27.056 38.952 27.696C39.128 28.336 39.216 29.016 39.216 29.736ZM33.552 27.864C33.376 28.808 33.192 29.712 33 30.576C32.808 31.44 32.616 32.312 32.424 33.192C32.232 34.072 32.04 34.992 31.848 35.952C31.656 36.912 31.472 37.96 31.296 39.096C31.68 38.84 32.048 38.496 32.4 38.064C32.768 37.616 33.112 37.104 33.432 36.528C33.752 35.952 34.04 35.344 34.296 34.704C34.568 34.064 34.8 33.44 34.992 32.832C35.184 32.224 35.328 31.656 35.424 31.128C35.536 30.6 35.592 30.144 35.592 29.76C35.592 29.168 35.424 28.704 35.088 28.368C34.768 28.032 34.256 27.864 33.552 27.864Z" fill="white"/>
<defs>
<linearGradient id="paint0_linear_101_11" x1="12" y1="15.5" x2="35" y2="60.5" gradientUnits="userSpaceOnUse">
<stop offset="0.0572917" stop-color="#2E474F"/>
<stop offset="1" stop-color="#1B589B" stop-opacity="0.59"/>
</linearGradient>
</defs>
</svg>
